<?xml version="1.0" encoding="UTF-8"?>
<!DOCTYPE svg PUBLIC "-//W3C//DTD SVG 1.0//EN" "http://www.w3.org/TR/2001/REC-SVG-20010904/DTD/svg10.dtd">
<!-- Creator: CorelDRAW X8 -->
<svg xmlns="http://www.w3.org/2000/svg" xml:space="preserve" width="5.55813in" height="7.28672in" version="1.0" style="shape-rendering:geometricPrecision; text-rendering:geometricPrecision; image-rendering:optimizeQuality; fill-rule:evenodd; clip-rule:evenodd"
viewBox="0 0 537 704"
 xmlns:xlink="http://www.w3.org/1999/xlink">
 <defs>
  <style type="text/css">
   <![CDATA[
    .fil4 {fill:none}
    .fil11 {fill:#333333}
    .fil13 {fill:#333333}
    .fil8 {fill:#390E5E}
    .fil10 {fill:#5D9613}
    .fil3 {fill:#6421A4}
    .fil7 {fill:#7EAF31}
    .fil2 {fill:#8CC63F}
    .fil9 {fill:#DB4E23}
    .fil5 {fill:#DB4E23}
    .fil1 {fill:#E2B08F}
    .fil6 {fill:#EF602E}
    .fil14 {fill:#F2F2F2}
    .fil15 {fill:#FF5112}
    .fil0 {fill:#FFD3AE}
    .fil12 {fill:white}
   ]]>
  </style>
   <clipPath id="id0">
    <path d="M404 296c1,0 -30,-122 14,-284 -99,-16 -200,-16 -299,0 44,162 13,284 14,284l271 0zm0 0l0 0 0 0z"/>
   </clipPath>
   <clipPath id="id1">
    <path d="M423 405l21 135 -31 -4 -27 92 -50 0 -68 76 -68 -76 -49 0 -27 -92 -31 4 21 -135 -35 0 29 -72 52 -34c0,0 -4,16 -8,38 -5,33 -8,79 7,103 4,7 11,12 19,14 32,7 57,1 73,-5 11,-4 24,-4 35,0 15,6 41,12 73,5 36,-8 32,-74 25,-117 -3,-22 -7,-38 -7,-38l38 0 14 34 29 72 -35 0 0 0z"/>
   </clipPath>
   <clipPath id="id2">
    <path d="M201 3c-24,2 -49,4 -73,8 44,162 13,285 15,285l71 0c1,-68 1,-192 -13,-293z"/>
   </clipPath>
   <clipPath id="id3">
    <path d="M311 491c0,6 -1,12 -3,17 -7,15 -22,26 -40,26 -17,0 -32,-11 -39,-26 -2,-5 -3,-11 -3,-17l85 0z"/>
   </clipPath>
 </defs>
 <g id="Layer_x0020_1">
  <metadata id="CorelCorpID_0Corel-Layer"/>
  <g>
   <path class="fil0" d="M398 273c0,0 44,193 -22,210 -38,10 -68,2 -87,-6 -13,-6 -28,-6 -41,0 -19,8 -49,16 -87,6 -66,-17 -22,-210 -22,-210l259 0zm0 0l0 0 0 0z"/>
  </g>
  <path class="fil1" d="M408 335c-93,9 -186,9 -279,0 4,-35 10,-62 10,-62l259 0c0,0 6,27 10,62z"/>
  <g>
   <path class="fil2" d="M404 296c1,0 -30,-122 14,-284 -99,-16 -200,-16 -299,0 44,162 13,284 14,284l271 0zm0 0l0 0 0 0z"/>
  </g>
  <g style="clip-path:url(#id0)">
   <g>
    <rect class="fil3" x="94" y="149" width="317.726" height="88.1024"/>
   </g>
  </g>
  <path class="fil4" d="M404 296c1,0 -30,-122 14,-284 -99,-16 -200,-16 -299,0 44,162 13,284 14,284m271 0l0 0 0 0z"/>
  <path class="fil5" d="M423 405l21 135 -31 -4 -27 92 -50 0 -68 76 -68 -76 -49 0 -27 -92 -31 4 21 -135 -35 0 29 -72 52 -34c0,0 -4,16 -8,38 -5,33 -8,79 7,103 4,7 11,12 19,14 32,7 57,1 73,-5 11,-4 24,-4 35,0 15,6 41,12 73,5 36,-8 32,-74 25,-117 -3,-22 -7,-38 -7,-38l38 0 14 34 29 72 -35 0 0 0z"/>
  <g style="clip-path:url(#id1)">
   <g>
    <ellipse class="fil6" cx="380" cy="378" rx="223" ry="355"/>
   </g>
  </g>
  <path class="fil4" d="M423 405l21 135 -31 -4 -27 92 -50 0 -68 76 -68 -76 -49 0 -27 -92 -31 4 21 -135 -35 0 29 -72 52 -34c0,0 -4,16 -8,38 -5,33 -8,79 7,103 4,7 11,12 19,14 32,7 57,1 73,-5 11,-4 24,-4 35,0 15,6 41,12 73,5 36,-8 32,-74 25,-117 -3,-22 -7,-38 -7,-38l38 0 14 34 29 72 -35 0 0 0z"/>
  <path class="fil7" d="M201 3c-24,2 -49,4 -73,8 44,162 13,285 15,285l71 0c1,-68 1,-192 -13,-293z"/>
  <g style="clip-path:url(#id2)">
   <g>
    <rect class="fil8" x="103" y="149" width="317.726" height="88.1024"/>
   </g>
  </g>
  <path class="fil4" d="M201 3c-24,2 -49,4 -73,8 44,162 13,285 15,285l71 0c1,-68 1,-192 -13,-293z"/>
  <path class="fil9" d="M122 299l38 0c0,0 -4,16 -8,38 -15,-1 -29,-2 -44,-4l14 -34z"/>
  <path class="fil9" d="M429 333c-15,2 -30,3 -45,4 -3,-22 -7,-38 -7,-38l38 0 14 34z"/>
  <path class="fil10" d="M268 314c-86,0 -173,-8 -260,-23 -5,-1 -9,-6 -8,-12 1,-5 6,-9 12,-8 170,30 343,30 513,0 5,-1 11,3 12,8 1,6 -3,11 -9,12 -86,15 -173,23 -260,23z"/>
  <path class="fil11" d="M205 413c-6,0 -10,-5 -10,-10l0 -37c0,-6 4,-11 10,-11 6,0 10,5 10,11l0 37c0,5 -4,10 -10,10z"/>
  <path class="fil11" d="M332 413c-6,0 -10,-5 -10,-10l0 -37c0,-6 4,-11 10,-11 6,0 10,5 10,11l0 37c0,5 -4,10 -10,10z"/>
  <path class="fil11" d="M311 491c0,6 -1,12 -3,17 -7,15 -22,26 -40,26 -17,0 -32,-11 -39,-26 -2,-5 -3,-11 -3,-17l85 0z"/>
  <g style="clip-path:url(#id3)">
   <g>
    <g>
     <rect class="fil12" x="247" y="485" width="18.1376" height="18.1376"/>
     <rect class="fil12" x="271" y="485" width="18.1376" height="18.1376"/>
    </g>
   </g>
  </g>
  <path class="fil4" d="M311 491c0,6 -1,12 -3,17 -7,15 -22,26 -40,26 -17,0 -32,-11 -39,-26 -2,-5 -3,-11 -3,-17l85 0z"/>
  <path class="fil13" d="M235 154c0,18 0,36 0,54 5,4 10,7 16,10l0 -33 -15 -16 31 0 0 77 -49 -28 0 -81 49 0 0 17 -32 0zm51 31l0 33c5,-3 11,-6 16,-10 0,-18 0,-36 0,-54l-32 0 0 -17 49 0 0 81 -49 28 0 -77 31 0 -15 16z"/>
  <g>
   <path class="fil14" d="M265 139l-45 0 0 78 45 26 0 -59 0 -13 -24 0 12 13 0 38c0,0 -21,-12 -21,-12 0,0 0,-58 0,-58l33 0 0 -13z"/>
   <path class="fil15" d="M272 139l45 0 0 78 -45 26 0 -59 0 -13 23 0 -11 13 0 38c0,0 20,-12 20,-12 0,0 0,-58 0,-58l-32 0 0 -13z"/>
  </g>
 </g>
</svg>
