<?xml version="1.0" encoding="UTF-8"?>
<!DOCTYPE svg PUBLIC "-//W3C//DTD SVG 1.0//EN" "http://www.w3.org/TR/2001/REC-SVG-20010904/DTD/svg10.dtd">
<!-- Creator: CorelDRAW X8 -->
<svg xmlns="http://www.w3.org/2000/svg" xml:space="preserve" width="9.94203in" height="13.8585in" version="1.0" style="shape-rendering:geometricPrecision; text-rendering:geometricPrecision; image-rendering:optimizeQuality; fill-rule:evenodd; clip-rule:evenodd"
viewBox="0 0 725 1010"
 xmlns:xlink="http://www.w3.org/1999/xlink">
 <defs>
  <style type="text/css">
   <![CDATA[
    .fil0 {fill:#E6E6E6}
   ]]>
  </style>
 </defs>
 <g id="Layer_x0020_1">
  <metadata id="CorelCorpID_0Corel-Layer"/>
  <g id="_2347717223216">
   <g>
    <g>
     <path class="fil0" d="M128 175c-26,-26 -68,-27 -93,-1 -22,24 -35,55 -35,90 0,37 16,73 45,98 -29,25 -45,61 -45,99 0,35 13,66 35,90 25,26 67,25 93,-1l188 -188 -188 -187z"/>
    </g>
   </g>
   <g>
    <g>
     <path class="fil0" d="M551 35c-24,-22 -55,-35 -90,-35 -38,0 -74,16 -99,45 -25,-29 -61,-45 -98,-45 -35,0 -66,13 -90,35 -26,25 -25,67 1,93l187 188 188 -188c26,-26 27,-68 1,-93z"/>
    </g>
   </g>
   <g>
    <g>
     <path class="fil0" d="M680 362c28,-25 45,-61 45,-98 0,-35 -14,-66 -35,-90 -25,-26 -68,-25 -93,1l-188 187 188 188c25,26 68,27 93,1 21,-24 35,-55 35,-90 0,-38 -17,-74 -45,-99z"/>
    </g>
   </g>
   <g>
    <g>
     <path class="fil0" d="M550 597l-188 -188 -187 188c-26,25 -27,68 -1,93 24,21 55,35 90,35 37,0 73,-17 98,-45 6,6 12,12 18,17 47,78 29,198 -39,255 -14,12 -16,32 -4,46 7,8 16,12 25,12 8,0 15,-2 21,-7 76,-64 106,-180 80,-278 34,-1 65,-14 88,-36 26,-24 25,-67 -1,-92z"/>
    </g>
   </g>
  </g>
 </g>
</svg>
