<?xml version="1.0" encoding="UTF-8"?>
<!DOCTYPE svg PUBLIC "-//W3C//DTD SVG 1.0//EN" "http://www.w3.org/TR/2001/REC-SVG-20010904/DTD/svg10.dtd">
<!-- Creator: CorelDRAW X8 -->
<svg xmlns="http://www.w3.org/2000/svg" xml:space="preserve" width="14.9819in" height="17.5412in" version="1.0" shape-rendering="geometricPrecision" text-rendering="geometricPrecision" image-rendering="optimizeQuality" fill-rule="evenodd" clip-rule="evenodd"
viewBox="0 0 240 282"
 xmlns:xlink="http://www.w3.org/1999/xlink">
 <g id="Layer_x0020_1">
  <metadata id="CorelCorpID_0Corel-Layer"/>
  <path fill="#6421A4" d="M187 116c28,-15 48,-43 53,-74 1,-6 0,-11 -4,-15 -3,-4 -9,-7 -14,-7l-22 0 0 -8c0,-7 -5,-12 -12,-12l-136 0c-6,0 -11,5 -11,12l0 8 -23 0c-5,0 -10,3 -14,7 -3,4 -5,9 -4,15 5,31 25,59 53,74l1 1 1 1c2,6 5,12 8,17 9,15 21,28 37,35l2 1 0 2c1,16 -10,30 -25,34 -2,0 -4,2 -4,4l0 33 -14 0c-10,0 -18,8 -18,17l0 16c0,3 2,5 5,5l149 0c3,0 5,-2 5,-5l0 -16c0,-9 -8,-17 -18,-17l-14 0 0 -33c0,-2 -2,-4 -4,-4 -15,-4 -26,-18 -25,-34l0 -2 2 -1c16,-7 28,-21 36,-35 3,-5 6,-11 9,-17l0 -1 1 -1zm-147 -19c-16,-15 -28,-35 -31,-57 -1,-3 0,-5 2,-7 2,-3 5,-4 7,-4l23 0 0 14c0,17 2,34 5,50l3 11 -9 -7zm10 176l0 -12c0,-4 4,-8 9,-8l123 0c5,0 9,4 9,8l0 12 -141 0zm109 -57l0 28 -77 0 0 -28 77 0zm-57 -15c1,-1 2,-2 2,-3 4,-6 7,-13 7,-20l0 -4 4 0c2,0 3,0 5,0 2,0 4,0 6,0l4 0 0 4c1,8 4,16 9,23l5 6 -47 0 5 -6zm89 -158c0,30 -6,62 -21,88 -11,17 -28,35 -50,35 -22,0 -39,-18 -49,-35 -15,-26 -22,-58 -22,-87l0 -36 142 0 0 35zm9 -14l22 0c3,0 6,1 7,4 2,2 3,4 3,7 -4,22 -15,42 -32,57l-9 7 3 -11c4,-16 6,-33 6,-50l0 -14z"/>
  <path fill="#6421A4" d="M158 67c-1,-2 -2,-3 -3,-3l-22 -3 -9 -20c-1,-1 -2,-2 -4,-2 -1,0 -3,1 -3,2l-10 20 -21 3c-2,0 -3,1 -3,3 -1,1 0,3 1,4l15 15 -4 21c0,1 1,3 2,4 1,1 3,1 4,0l19 -10 19 10c1,0 2,1 2,1 1,0 2,-1 3,-1 1,-1 1,-3 1,-4l-4 -21 16 -15c1,-1 1,-3 1,-4zm-24 14c0,1 -1,3 -1,4l3 15 -14 -7c-1,0 -1,0 -2,0 0,0 -1,0 -2,0l-13 7 2 -15c0,-1 0,-3 -1,-4l-11 -10 15 -3c2,0 3,-1 3,-2l7 -14 7 14c1,1 2,2 3,2l16 3 -12 10z"/>
 </g>
</svg>
