<?xml version="1.0" encoding="UTF-8"?>
<!DOCTYPE svg PUBLIC "-//W3C//DTD SVG 1.0//EN" "http://www.w3.org/TR/2001/REC-SVG-20010904/DTD/svg10.dtd">
<!-- Creator: CorelDRAW X8 -->
<svg xmlns="http://www.w3.org/2000/svg" xml:space="preserve" width="18.9771in" height="16.8397in" version="1.0" shape-rendering="geometricPrecision" text-rendering="geometricPrecision" image-rendering="optimizeQuality" fill-rule="evenodd" clip-rule="evenodd"
viewBox="0 0 456 404"
 xmlns:xlink="http://www.w3.org/1999/xlink">
 <g id="Layer_x0020_1">
  <metadata id="CorelCorpID_0Corel-Layer"/>
  <path fill="#FF5112" fill-rule="nonzero" d="M68 112c18,0 35,8 47,20 13,12 20,29 20,48l0 224 -135 0 0 -224c0,-19 8,-36 20,-48 12,-12 29,-20 48,-20zm36 32c-10,-10 -22,-15 -36,-15 -14,0 -27,5 -36,15 -10,9 -15,22 -15,36l0 208 102 0 0 -208c0,-14 -6,-27 -15,-36z"/>
  <path fill="#FF5112" fill-rule="nonzero" d="M228 0c19,0 36,8 48,20 12,12 20,29 20,48l0 336 -135 0 0 -336c0,-19 7,-36 20,-48 12,-12 29,-20 47,-20zm36 32c-9,-10 -22,-15 -36,-15 -14,0 -26,5 -36,15 -9,9 -15,22 -15,36l0 320 102 0 0 -320c0,-14 -5,-27 -15,-36z"/>
  <path fill="#FF5112" fill-rule="nonzero" d="M388 75c19,0 35,7 48,20 12,12 20,29 20,47l0 262 -136 0 0 -262c0,-18 8,-35 20,-47 12,-13 29,-20 48,-20zm36 31c-9,-9 -22,-15 -36,-15 -14,0 -27,6 -36,15 -9,10 -15,22 -15,36l0 246 102 0 0 -246c0,-14 -6,-26 -15,-36z"/>
 </g>
</svg>
