<?xml version="1.0" encoding="UTF-8"?>
<!DOCTYPE svg PUBLIC "-//W3C//DTD SVG 1.0//EN" "http://www.w3.org/TR/2001/REC-SVG-20010904/DTD/svg10.dtd">
<!-- Creator: CorelDRAW X8 -->
<svg xmlns="http://www.w3.org/2000/svg" xml:space="preserve" width="15.7717in" height="13.8658in" version="1.0" shape-rendering="geometricPrecision" text-rendering="geometricPrecision" image-rendering="optimizeQuality" fill-rule="evenodd" clip-rule="evenodd"
viewBox="0 0 232 204"
 xmlns:xlink="http://www.w3.org/1999/xlink">
 <g id="Layer_x0020_1">
  <metadata id="CorelCorpID_0Corel-Layer"/>
  <path fill="#FF5112" d="M213 19c-12,-12 -28,-19 -45,-19 -17,0 -33,7 -45,19l-7 6 -6 -6c-12,-12 -29,-19 -46,-19 -17,0 -33,7 -45,19 -12,12 -19,28 -19,45 0,17 7,34 19,46l92 92c2,1 3,2 5,2 2,0 3,-1 5,-2l92 -92c12,-12 19,-28 19,-46 0,-17 -6,-33 -19,-45zm-9 82l-88 87 -88 -88c-9,-9 -15,-22 -15,-36 0,-13 6,-26 15,-36 10,-9 23,-15 36,-15 14,0 27,6 36,15l11 11c3,3 7,3 10,0l11 -11c10,-9 22,-15 36,-15 14,0 26,6 36,15 10,10 15,23 15,36 0,14 -5,27 -15,37z"/>
 </g>
</svg>
