<?xml version="1.0" encoding="UTF-8"?>
<!DOCTYPE svg PUBLIC "-//W3C//DTD SVG 1.0//EN" "http://www.w3.org/TR/2001/REC-SVG-20010904/DTD/svg10.dtd">
<!-- Creator: CorelDRAW X8 -->
<svg xmlns="http://www.w3.org/2000/svg" xml:space="preserve" width="25.0847in" height="22.5371in" version="1.0" shape-rendering="geometricPrecision" text-rendering="geometricPrecision" image-rendering="optimizeQuality" fill-rule="evenodd" clip-rule="evenodd"
viewBox="0 0 1536 1380"
 xmlns:xlink="http://www.w3.org/1999/xlink">
 <g id="Layer_x0020_1">
  <metadata id="CorelCorpID_0Corel-Layer"/>
  <g id="_1361805320176">
   <g>
    <g>
     <path fill="#BA70FF" d="M150 1200c-17,0 -30,14 -30,30 0,17 13,30 30,30 17,0 30,-13 30,-30 0,-16 -13,-30 -30,-30z"/>
    </g>
   </g>
   <g>
    <g>
     <path fill="#BA70FF" d="M480 780c-66,0 -120,54 -120,120 0,66 54,120 120,120 66,0 120,-54 120,-120 0,-66 -54,-120 -120,-120zm0 180c-33,0 -60,-27 -60,-60 0,-33 27,-60 60,-60 33,0 60,27 60,60 0,33 -27,60 -60,60z"/>
    </g>
   </g>
   <g>
    <g>
     <path fill="#BA70FF" d="M240 540c-66,0 -120,54 -120,120 0,66 54,120 120,120 66,0 120,-54 120,-120 0,-66 -54,-120 -120,-120zm0 180c-33,0 -60,-27 -60,-60 0,-33 27,-60 60,-60 33,0 60,27 60,60 0,33 -27,60 -60,60z"/>
    </g>
   </g>
   <g>
    <g>
     <path fill="#BA70FF" d="M1386 0l-660 0c-83,0 -150,67 -150,150l0 270 -426 0c-83,0 -150,67 -150,150l0 660c0,83 67,150 150,150l660 0c83,0 150,-67 150,-150l0 -270 426 0c83,0 150,-67 150,-150l0 -660c0,-83 -67,-150 -150,-150zm-486 1230c0,50 -40,90 -90,90l-660 0c-50,0 -90,-40 -90,-90l0 -660c0,-50 40,-90 90,-90l660 0c50,0 90,40 90,90l0 660zm576 -420c0,50 -40,90 -90,90l-426 0 0 -330c0,-83 -67,-150 -150,-150l-174 0 0 -270c0,-50 40,-90 90,-90l660 0c50,0 90,40 90,90l0 660z"/>
    </g>
   </g>
   <g>
    <g>
     <path fill="#BA70FF" d="M816 120c-66,0 -120,54 -120,120 0,66 54,120 120,120 66,0 120,-54 120,-120 0,-66 -54,-120 -120,-120zm0 180c-33,0 -60,-27 -60,-60 0,-33 27,-60 60,-60 33,0 60,27 60,60 0,33 -27,60 -60,60z"/>
    </g>
   </g>
   <g>
    <g>
     <path fill="#BA70FF" d="M1296 600c-66,0 -120,54 -120,120 0,66 54,120 120,120 66,0 120,-54 120,-120 0,-66 -54,-120 -120,-120zm0 180c-33,0 -60,-27 -60,-60 0,-33 27,-60 60,-60 33,0 60,27 60,60 0,33 -27,60 -60,60z"/>
    </g>
   </g>
   <g>
    <g>
     <path fill="#BA70FF" d="M1296 120c-66,0 -120,54 -120,120 0,66 54,120 120,120 66,0 120,-54 120,-120 0,-66 -54,-120 -120,-120zm0 180c-33,0 -60,-27 -60,-60 0,-33 27,-60 60,-60 33,0 60,27 60,60 0,33 -27,60 -60,60z"/>
    </g>
   </g>
   <g>
    <g>
     <path fill="#BA70FF" d="M720 1020c-66,0 -120,54 -120,120 0,66 54,120 120,120 66,0 120,-54 120,-120 0,-66 -54,-120 -120,-120zm0 180c-33,0 -60,-27 -60,-60 0,-33 27,-60 60,-60 33,0 60,27 60,60 0,33 -27,60 -60,60z"/>
    </g>
   </g>
   <g>
    <g>
     <path fill="#BA70FF" d="M390 1200l-120 0c-17,0 -30,14 -30,30 0,17 13,30 30,30l120 0c17,0 30,-13 30,-30 0,-16 -13,-30 -30,-30z"/>
    </g>
   </g>
  </g>
 </g>
</svg>
