<?xml version="1.0" encoding="UTF-8"?>
<!DOCTYPE svg PUBLIC "-//W3C//DTD SVG 1.0//EN" "http://www.w3.org/TR/2001/REC-SVG-20010904/DTD/svg10.dtd">
<!-- Creator: CorelDRAW X8 -->
<svg xmlns="http://www.w3.org/2000/svg" xml:space="preserve" width="23.8176in" height="23.8176in" version="1.0" shape-rendering="geometricPrecision" text-rendering="geometricPrecision" image-rendering="optimizeQuality" fill-rule="evenodd" clip-rule="evenodd"
viewBox="0 0 2632 2632"
 xmlns:xlink="http://www.w3.org/1999/xlink">
 <g id="Layer_x0020_1">
  <metadata id="CorelCorpID_0Corel-Layer"/>
  <g id="_2848970300816">
   <g>
    <g>
     <path fill="#BA70FF" d="M0 2335c0,70 57,127 127,127l213 0 0 85 -170 0 0 85 934 0 0 -85 -170 0 0 -85 212 0c70,0 128,-57 128,-127l0 -127 -1274 0 0 127zm849 212l-424 0 0 -85 424 0 0 85zm-764 -254l1104 0 0 42c0,23 -19,42 -43,42l-1019 0c-23,0 -42,-19 -42,-42l0 -42z"/>
     <path fill="#BA70FF" d="M1146 1443l-1019 0c-70,0 -127,58 -127,128l0 552 85 0 0 -552c0,-24 19,-43 42,-43l1019 0c24,0 43,19 43,43l0 552 85 0 0 -552c0,-70 -58,-128 -128,-128z"/>
     <path fill="#BA70FF" d="M1359 2335c0,70 57,127 127,127l212 0 0 85 -170 0 0 85 934 0 0 -85 -169 0 0 -85 212 0c70,0 127,-57 127,-127l0 -127 -1273 0 0 127zm849 212l-425 0 0 -85 425 0 0 85zm-765 -254l1104 0 0 42c0,23 -19,42 -42,42l-1019 0c-23,0 -43,-19 -43,-42l0 -42z"/>
     <path fill="#BA70FF" d="M2505 1443l-1019 0c-70,0 -127,58 -127,128l0 552 84 0 0 -552c0,-24 20,-43 43,-43l1019 0c23,0 42,19 42,43l0 552 85 0 0 -552c0,-70 -57,-128 -127,-128z"/>
     <path fill="#BA70FF" d="M892 1189l849 0c46,0 85,-38 85,-85l0 -170c0,-47 -39,-85 -85,-85l-43 0 0 -85 43 0c46,0 85,-38 85,-85l0 -170c0,-46 -39,-84 -85,-84l-43 0 0 -85 43 0c46,0 85,-38 85,-85l0 -170c0,-47 -39,-85 -85,-85l-849 0c-47,0 -85,38 -85,85l0 170c0,47 38,85 85,85l42 0 0 85 -42 0c-47,0 -85,38 -85,84l0 170c0,47 38,85 85,85l42 0 0 85 -42 0c-47,0 -85,38 -85,85l0 170c0,47 38,85 85,85zm0 -934l0 -170 0 0 849 0 0 170 -849 0zm721 85l0 85 -594 0 0 -85 594 0zm-721 339l0 -170 0 0 849 0 0 170 -849 0zm721 85l0 85 -594 0 0 -85 594 0zm-721 170l849 0 0 170 -849 0 0 -170 0 0z"/>
     <path fill="#BA70FF" d="M2080 1231c0,70 57,128 128,128 70,0 127,-58 127,-128 0,-70 -57,-127 -127,-127 -71,0 -128,57 -128,127zm170 0c0,24 -19,43 -42,43 -24,0 -43,-19 -43,-43 0,-23 19,-42 43,-42 23,0 42,19 42,42z"/>
     <path fill="#BA70FF" d="M2377 1061c0,71 58,128 128,128 70,0 127,-57 127,-128 0,-70 -57,-127 -127,-127 -70,0 -128,57 -128,127zm170 0c0,24 -19,43 -42,43 -24,0 -43,-19 -43,-43 0,-23 19,-42 43,-42 23,0 42,19 42,42z"/>
     <path fill="#BA70FF" d="M2462 467l0 382 85 0 0 -382c0,-117 -95,-212 -212,-212l-425 0 0 85 425 0c70,0 127,57 127,127z"/>
     <path fill="#BA70FF" d="M2165 552l0 467 85 0 0 -467c0,-70 -57,-127 -127,-127l-213 0 0 84 213 0c23,0 42,20 42,43z"/>
     <path fill="#BA70FF" d="M297 1231c0,70 57,128 128,128 70,0 127,-58 127,-128 0,-70 -57,-127 -127,-127 -71,0 -128,57 -128,127zm170 0c0,24 -19,43 -42,43 -24,0 -43,-19 -43,-43 0,-23 19,-42 43,-42 23,0 42,19 42,42z"/>
     <path fill="#BA70FF" d="M127 1189c71,0 128,-57 128,-128 0,-70 -57,-127 -128,-127 -70,0 -127,57 -127,127 0,71 57,128 127,128zm0 -170c24,0 43,19 43,42 0,24 -19,43 -43,43 -23,0 -42,-19 -42,-43 0,-23 19,-42 42,-42z"/>
     <path fill="#BA70FF" d="M170 467c0,-70 57,-127 127,-127l425 0 0 -85 -425 0c-117,0 -212,95 -212,212l0 382 85 0 0 -382z"/>
     <path fill="#BA70FF" d="M722 425l-213 0c-70,0 -127,57 -127,127l0 467 85 0 0 -467c0,-23 19,-43 42,-43l213 0 0 -84z"/>
    </g>
   </g>
  </g>
 </g>
</svg>
