<?xml version="1.0" encoding="UTF-8"?>
<!DOCTYPE svg PUBLIC "-//W3C//DTD SVG 1.0//EN" "http://www.w3.org/TR/2001/REC-SVG-20010904/DTD/svg10.dtd">
<!-- Creator: CorelDRAW X8 -->
<svg xmlns="http://www.w3.org/2000/svg" xml:space="preserve" width="23.5236in" height="26.1008in" version="1.0" shape-rendering="geometricPrecision" text-rendering="geometricPrecision" image-rendering="optimizeQuality" fill-rule="evenodd" clip-rule="evenodd"
viewBox="0 0 1959 2174"
 xmlns:xlink="http://www.w3.org/1999/xlink">
 <g id="Layer_x0020_1">
  <metadata id="CorelCorpID_0Corel-Layer"/>
  <g id="_2849183154992">
   <path fill="#BA70FF" d="M1182 1082c178,178 467,178 644,0 178,-178 178,-466 0,-644l-305 -305c-177,-177 -466,-177 -644,0 -177,178 -177,467 0,644l66 66 -932 932c-15,14 -15,38 0,52l121 121c15,15 38,15 53,0l15 -15 231 230c14,15 38,15 52,0l161 -160c14,-15 14,-38 0,-53l-97 -97 106 -106c14,-15 14,-38 0,-53l-107 -107 571 -571 65 66zm-252 -896c148,-149 390,-149 539,0l305 304c148,149 148,391 0,540 -149,148 -391,148 -539,0l-305 -305c-149,-149 -149,-391 0,-539zm-356 1534l-106 107c-14,14 -14,38 0,52l97 97 -108 109 -204 -205 241 -240 80 80zm-416 150l-69 -69 906 -906 69 69 -906 906z"/>
   <path fill="#BA70FF" d="M1674 930c93,-94 93,-246 0,-339l-305 -305c-94,-94 -246,-94 -339,0 -94,93 -94,245 0,339l305 305c93,93 245,93 339,0l0 0zm-592 -592c65,-65 170,-65 234,0l305 305c65,64 65,170 0,234 -64,65 -169,65 -234,0l-305 -305c-64,-64 -64,-169 0,-234z"/>
  </g>
 </g>
</svg>
