<?xml version="1.0" encoding="UTF-8"?>
<!DOCTYPE svg PUBLIC "-//W3C//DTD SVG 1.1//EN" "http://www.w3.org/Graphics/SVG/1.1/DTD/svg11.dtd">
<!-- Creator: CorelDRAW X8 -->
<svg xmlns="http://www.w3.org/2000/svg" xml:space="preserve" width="16.1765in" height="16.1765in" version="1.1" style="shape-rendering:geometricPrecision; text-rendering:geometricPrecision; image-rendering:optimizeQuality; fill-rule:evenodd; clip-rule:evenodd"
viewBox="0 0 400 400"
 xmlns:xlink="http://www.w3.org/1999/xlink">
 <defs>
  <style type="text/css">
   <![CDATA[
    .fil0 {fill:#FF5112;fill-rule:nonzero}
   ]]>
  </style>
 </defs>
 <g id="Layer_x0020_1">
  <metadata id="CorelCorpID_0Corel-Layer"/>
  <path class="fil0" d="M200 95c16,0 31,6 41,17 11,10 18,25 18,41 0,16 -7,31 -18,42 -10,10 -25,17 -41,17 -16,0 -31,-7 -42,-17 -10,-11 -17,-26 -17,-42 0,-16 7,-31 17,-41 11,-11 26,-17 42,-17zm31 28c-8,-8 -19,-13 -31,-13 -12,0 -23,5 -31,13 -8,7 -12,18 -12,30 0,12 4,23 12,31 8,8 19,12 31,12 12,0 23,-4 31,-12 7,-8 12,-19 12,-31 0,-12 -5,-23 -12,-30z"/>
  <path class="fil0" d="M120 298c0,-23 9,-43 23,-57 15,-15 35,-24 57,-24 22,0 42,9 57,24 14,14 23,34 23,57l-15 0c0,-18 -7,-35 -19,-46 -12,-12 -28,-19 -46,-19 -18,0 -34,7 -46,19 -12,11 -19,28 -19,46l-15 0z"/>
  <path class="fil0" d="M200 0c55,0 105,22 141,59 36,36 59,86 59,141 0,55 -23,105 -59,141 -36,36 -86,59 -141,59 -55,0 -105,-23 -141,-59 -37,-36 -59,-86 -59,-141 0,-55 22,-105 59,-141 36,-37 86,-59 141,-59zm126 74c-32,-33 -77,-53 -126,-53 -49,0 -94,20 -126,53 -33,32 -53,77 -53,126 0,49 20,94 53,126 32,33 77,53 126,53 49,0 94,-20 126,-53 33,-32 53,-77 53,-126 0,-49 -20,-94 -53,-126z"/>
 </g>
</svg>
