<?xml version="1.0" encoding="UTF-8"?>
<!DOCTYPE svg PUBLIC "-//W3C//DTD SVG 1.0//EN" "http://www.w3.org/TR/2001/REC-SVG-20010904/DTD/svg10.dtd">
<!-- Creator: CorelDRAW X8 -->
<svg xmlns="http://www.w3.org/2000/svg" xml:space="preserve" width="40.4112in" height="54.3452in" version="1.0" shape-rendering="geometricPrecision" text-rendering="geometricPrecision" image-rendering="optimizeQuality" fill-rule="evenodd" clip-rule="evenodd"
viewBox="0 0 2024 2721"
 xmlns:xlink="http://www.w3.org/1999/xlink">
 <g id="Layer_x0020_1">
  <metadata id="CorelCorpID_0Corel-Layer"/>
  <g id="_1397478733536">
   <g>
    <g>
     <path fill="#F9F9F9" d="M1977 283c-38,-51 -94,-85 -157,-94l-1224 -186c-120,-18 -229,51 -263,161l-94 0c-132,0 -239,107 -239,239l0 2079c0,132 107,239 239,239l1238 0c132,0 240,-107 240,-239l0 -15 161 -1062c3,-24 -13,-46 -36,-49 -24,-4 -46,12 -50,36l-75 499 0 -1488c0,-57 -20,-110 -54,-151l144 22c41,6 76,28 100,60 25,33 35,74 29,114l-115 758c-4,23 12,45 36,49 2,0 4,0 6,0 21,0 40,-15 43,-36l115 -758c9,-63 -6,-126 -44,-178zm-1508 -168c33,-23 73,-33 114,-27l497 76 -654 0c11,-19 25,-36 43,-49zm1008 2520l-1238 0c-84,0 -153,-69 -153,-153l0 -2079c0,-84 69,-153 153,-153l1238 0c85,0 153,69 153,153l0 2079 0 0c0,84 -68,153 -153,153z"/>
    </g>
   </g>
   <g>
    <g>
     <path fill="#F9F9F9" d="M437 583l-77 -179c-7,-16 -23,-26 -40,-26 -17,0 -33,10 -39,26l-78 179c-10,21 0,47 22,56 22,10 47,0 57,-22l38 -88 38 88c7,16 23,26 40,26 6,0 11,-1 17,-4 22,-9 32,-35 22,-56z"/>
    </g>
   </g>
   <g>
    <g>
     <path fill="#F9F9F9" d="M1481 2233c-22,-10 -47,0 -57,22l-38 87 -38 -87c-10,-22 -35,-32 -57,-22 -22,9 -32,35 -22,56l78 179c6,16 22,26 39,26 17,0 33,-10 40,-26l77 -179c10,-21 0,-47 -22,-56z"/>
    </g>
   </g>
   <g>
    <g>
     <path fill="#F9F9F9" d="M1333 1230l-444 -444c-17,-17 -44,-17 -61,0l-88 87c-16,17 -16,45 0,61 17,17 45,17 61,0l57 -56 413 413c73,72 73,189 0,262 -72,72 -189,72 -261,0l-40 -40c-12,-12 -31,-16 -47,-9 -16,6 -27,22 -27,40l0 182c0,86 63,157 145,170l0 26 -365 0 0 -26c82,-13 144,-84 144,-170l0 -182c0,-18 -10,-34 -26,-40 -17,-7 -35,-3 -47,9l-40 40c-72,72 -190,72 -262,0 -72,-73 -72,-190 0,-262l233 -233c17,-17 17,-44 0,-61 -17,-17 -45,-17 -61,0l-233 233c-106,106 -106,278 0,384 95,95 244,104 350,29l0 83c0,48 -39,86 -87,86 -32,0 -58,26 -58,59l0 94c0,24 20,43 43,43l452 0c24,0 43,-19 43,-43l0 -94c0,-33 -26,-59 -58,-59 -47,0 -86,-38 -86,-86l0 -83c106,75 254,66 350,-29 105,-106 105,-278 0,-384z"/>
    </g>
   </g>
  </g>
 </g>
</svg>
