<?xml version="1.0" encoding="UTF-8"?>
<!DOCTYPE svg PUBLIC "-//W3C//DTD SVG 1.0//EN" "http://www.w3.org/TR/2001/REC-SVG-20010904/DTD/svg10.dtd">
<!-- Creator: CorelDRAW X8 -->
<svg xmlns="http://www.w3.org/2000/svg" xml:space="preserve" width="11.1844in" height="9.83288in" version="1.0" style="shape-rendering:geometricPrecision; text-rendering:geometricPrecision; image-rendering:optimizeQuality; fill-rule:evenodd; clip-rule:evenodd"
viewBox="0 0 134 118"
 xmlns:xlink="http://www.w3.org/1999/xlink">
 <defs>
  <style type="text/css">
   <![CDATA[
    .fil0 {fill:#6421A4}
   ]]>
  </style>
 </defs>
 <g id="Layer_x0020_1">
  <metadata id="CorelCorpID_0Corel-Layer"/>
  <path class="fil0" d="M123 11c-7,-7 -16,-11 -26,-11 -10,0 -19,4 -26,11l-4 4 -4 -4c-7,-7 -16,-11 -26,-11 -10,0 -19,4 -26,11 -7,7 -11,16 -11,26 0,10 4,19 11,26l53 54c1,0 2,1 3,1 1,0 2,-1 3,-1l53 -54c7,-7 11,-16 11,-26 0,-10 -4,-19 -11,-26zm-5 47l-51 50 -51 -50c-5,-6 -8,-13 -8,-21 0,-8 3,-15 8,-21 6,-5 13,-8 21,-8 8,0 15,3 21,8l6 7c2,1 4,1 6,0l6 -7c6,-5 13,-8 21,-8 8,0 15,3 21,8 5,6 8,13 8,21 0,8 -3,15 -8,21z"/>
 </g>
</svg>
