<?xml version="1.0" encoding="UTF-8"?>
<!DOCTYPE svg PUBLIC "-//W3C//DTD SVG 1.0//EN" "http://www.w3.org/TR/2001/REC-SVG-20010904/DTD/svg10.dtd">
<!-- Creator: CorelDRAW X8 -->
<svg xmlns="http://www.w3.org/2000/svg" xml:space="preserve" width="55.8921in" height="55.8921in" version="1.0" shape-rendering="geometricPrecision" text-rendering="geometricPrecision" image-rendering="optimizeQuality" fill-rule="evenodd" clip-rule="evenodd"
viewBox="0 0 4548 4548"
 xmlns:xlink="http://www.w3.org/1999/xlink">
 <g id="Layer_x0020_1">
  <metadata id="CorelCorpID_0Corel-Layer"/>
  <g id="_1397455169232">
   <g>
    <path fill="white" d="M3882 666c-429,-429 -1000,-666 -1608,-666 -607,0 -1178,237 -1608,666 -429,430 -666,1001 -666,1608 0,608 237,1179 666,1608 430,430 1001,666 1608,666 608,0 1179,-236 1608,-666 430,-429 666,-1000 666,-1608 0,-607 -236,-1178 -666,-1608zm-94 3122c-404,404 -942,627 -1514,627 -572,0 -1109,-223 -1514,-627 -404,-404 -627,-942 -627,-1514 0,-572 223,-1109 627,-1514 405,-404 942,-627 1514,-627 572,0 1110,223 1514,627 404,405 627,942 627,1514 0,572 -223,1110 -627,1514z"/>
   </g>
   <g>
    <path fill="white" d="M3931 1245c-187,-300 -451,-544 -765,-706 -32,-17 -72,-4 -89,29 -17,33 -4,73 28,90 147,75 282,170 403,282l-82 81c-288,-264 -668,-431 -1085,-447l0 -116c170,6 338,36 499,89 35,11 72,-8 84,-43 11,-35 -8,-73 -43,-84 -195,-64 -399,-96 -607,-96 -521,0 -1011,203 -1379,571 -368,368 -571,858 -571,1379 0,521 203,1011 571,1379 368,369 858,572 1379,572 521,0 1011,-203 1379,-572 369,-368 572,-858 572,-1379 0,-365 -102,-721 -294,-1029zm-329 -211c81,86 153,180 216,281 167,269 261,576 272,893l-112 0c-16,-422 -187,-804 -457,-1093l81 -81zm-18 1658c2,-7 4,-13 6,-20l188 47c-10,36 -22,71 -35,105 -13,34 -27,69 -42,102l-36 -18c1,-9 2,-19 2,-29 0,-74 -32,-141 -83,-187zm-1310 823c-684,0 -1241,-556 -1241,-1241 0,-684 557,-1241 1241,-1241 685,0 1241,557 1241,1241 0,124 -18,243 -52,356 -16,-3 -33,-5 -51,-5 -6,0 -13,0 -19,1 36,-113 54,-231 54,-352 0,-647 -526,-1173 -1173,-1173 -647,0 -1173,526 -1173,1173 0,647 526,1173 1173,1173 186,0 363,-42 528,-125 32,-16 46,-56 29,-89 -16,-33 -57,-46 -89,-30 -146,74 -303,111 -468,111 -573,0 -1040,-466 -1040,-1040 0,-573 467,-1040 1040,-1040 574,0 1040,467 1040,1040 0,157 -36,310 -102,449 -18,23 -32,49 -42,78 -54,92 -122,176 -203,249 -27,24 -30,66 -5,94 24,27 66,29 94,5 49,-44 95,-93 136,-144 11,20 25,39 42,55 -228,278 -573,455 -960,455zm487 250c-35,12 -71,22 -106,31 -36,9 -72,16 -109,23l-25 -193c58,-10 116,-25 172,-43l68 182zm-725 -137l-25 192c-36,-6 -72,-13 -108,-22 -35,-9 -71,-19 -106,-30l66 -182c56,18 114,32 173,42zm-841 -2205c-36,47 -70,95 -100,146l-172 -91c19,-32 39,-64 59,-94 21,-30 43,-59 66,-89l147 128zm-60 -229c62,-65 130,-125 203,-179l110 162c-59,44 -114,93 -165,146l-148 -129zm-103 493c-32,66 -58,135 -79,206l-192 -46c25,-87 58,-172 97,-253l174 93zm-109 336c-11,57 -18,116 -21,176l-194 -1c1,-38 4,-74 9,-111 4,-36 10,-73 17,-109l189 45zm-22 309c3,75 12,148 27,219l-191 49c-19,-87 -30,-177 -34,-269l198 1zm60 348c17,57 39,112 63,166l-172 89c-16,-34 -30,-68 -43,-102 -13,-34 -25,-69 -36,-105l188 -48zm125 284c37,64 79,124 126,181l-146 132c-58,-70 -110,-144 -155,-223l175 -90zm215 280c42,42 86,81 133,117l-112 160c-29,-23 -58,-46 -85,-70 -28,-25 -54,-50 -81,-76l145 -131zm242 194c62,39 127,73 195,102l-67 183c-84,-35 -164,-77 -240,-125l112 -160zm-94 -2497c31,-20 63,-38 96,-55 32,-17 65,-33 99,-48l71 181c-55,24 -107,52 -157,82l-109 -160zm319 -152c85,-29 173,-50 263,-65l22 193c-73,12 -145,30 -214,53l-71 -181zm1825 1096c-22,-71 -48,-140 -80,-206l173 -93c40,80 73,165 98,252l-191 47zm223 83c14,72 24,145 28,220l-198 3c-3,-60 -11,-119 -22,-177l192 -46zm-283 911c0,67 -54,121 -121,121 -66,0 -121,-54 -121,-121 0,-9 1,-18 3,-26 11,-19 21,-37 30,-56 22,-24 54,-39 88,-39 67,0 121,55 121,121zm-521 554l113 159c-76,49 -155,92 -239,127l-68 -182c68,-30 133,-64 194,-104zm109 -77c47,-36 91,-76 132,-118l146 130c-26,26 -53,52 -80,76 -28,25 -56,48 -85,71l-113 -159zm221 -217c3,-5 7,-9 10,-13 19,5 40,8 60,8 83,0 157,-40 203,-102l27 14c-45,79 -96,154 -154,223l-146 -130zm280 -596c14,-71 23,-145 26,-219l197 -3c-2,92 -13,182 -31,270l-192 -48zm-127 -1256c46,57 89,118 127,182l-172 93c-31,-51 -65,-99 -102,-145l147 -130zm-292 -278c73,54 141,113 204,178l-147 130c-52,-53 -107,-101 -166,-145l109 -163zm-308 -176c69,30 134,64 197,102l-109 162c-50,-30 -103,-58 -157,-82l69 -182zm-378 -109c87,14 172,35 254,62l-69 182c-67,-22 -136,-39 -207,-51l22 -193zm-132 -14l-22 193c-29,-2 -59,-3 -89,-3 -30,0 -59,1 -89,3l-21 -193c36,-3 73,-4 110,-4 37,0 74,1 111,4zm-177 -252l0 116c-418,16 -798,183 -1086,447l-81 -81c309,-285 717,-465 1167,-482zm-1261 576l80 81c-270,289 -440,671 -457,1093l-112 0c17,-453 199,-864 489,-1174zm-9 2470c-284,-308 -463,-715 -480,-1163l112 0c17,416 184,795 448,1083l-80 80zm1270 586c-454,-16 -866,-200 -1176,-491l80 -81c290,270 673,440 1096,456l0 116zm-64 -253l24 -192c35,2 70,4 106,4 39,0 77,-2 115,-5l25 192c-46,4 -93,7 -140,7 -44,0 -87,-2 -130,-6zm197 253l0 -116c422,-16 805,-186 1095,-456l81 81c-310,291 -722,475 -1176,491zm1270 -586l-81 -80c265,-288 432,-667 448,-1083l112 0c-16,448 -195,855 -479,1163z"/>
   </g>
   <g>
    <path fill="white" d="M3053 2065c-92,0 -171,60 -199,143l-197 0c-28,-161 -155,-288 -316,-316l0 -198c30,-11 58,-28 81,-51 40,-39 62,-92 62,-148 0,-115 -94,-209 -210,-209 -115,0 -209,94 -209,209 0,92 60,171 143,198l0 199c-161,28 -288,155 -316,316l-198 0c-28,-83 -106,-143 -199,-143 -115,0 -209,94 -209,209 0,116 94,209 209,209 93,0 171,-59 199,-142l198 0c28,160 155,287 316,315l0 199c-31,10 -59,27 -82,50 -40,40 -61,92 -61,148 0,56 21,109 61,148 40,40 92,61 148,61 116,0 210,-94 210,-209 0,-92 -60,-170 -143,-198l0 -199c13,-2 27,-5 40,-9 36,-10 56,-47 46,-83 -10,-35 -47,-55 -82,-45 -23,6 -47,10 -71,10 -140,0 -255,-115 -255,-255 0,-140 115,-254 255,-254 141,0 255,114 255,254 0,32 -6,63 -17,92 -13,34 4,73 38,86 35,13 73,-4 87,-38 9,-24 15,-48 20,-73l197 0c28,83 107,142 199,142 115,0 209,-93 209,-209 0,-115 -94,-209 -209,-209zm-1558 285c-42,0 -76,-34 -76,-76 0,-42 34,-76 76,-76 43,0 77,34 77,76 0,42 -34,76 -77,76zm779 627c42,0 76,34 76,76 0,42 -34,76 -76,76 -20,0 -39,-8 -54,-22 -14,-15 -22,-34 -22,-54 0,-20 8,-39 22,-53 15,-15 34,-23 54,-23zm0 -1406c-42,0 -76,-34 -76,-76 0,-42 34,-76 76,-76 42,0 76,34 76,76 0,20 -8,40 -22,54 -14,14 -33,22 -54,22zm779 779c-42,0 -76,-34 -76,-76 0,-42 34,-76 76,-76 42,0 76,34 76,76 0,42 -34,76 -76,76z"/>
   </g>
   <g>
    <path fill="white" d="M2274 2088c-103,0 -187,83 -187,186 0,103 84,187 187,187 103,0 187,-84 187,-187 0,-103 -84,-186 -187,-186zm0 240c-29,0 -53,-24 -53,-54 0,-29 24,-53 53,-53 30,0 54,24 54,53 0,30 -24,54 -54,54z"/>
   </g>
  </g>
 </g>
</svg>
