<?xml version="1.0" encoding="UTF-8"?>
<!DOCTYPE svg PUBLIC "-//W3C//DTD SVG 1.0//EN" "http://www.w3.org/TR/2001/REC-SVG-20010904/DTD/svg10.dtd">
<!-- Creator: CorelDRAW X8 -->
<svg xmlns="http://www.w3.org/2000/svg" xml:space="preserve" width="22.5373in" height="24.8688in" version="1.0" shape-rendering="geometricPrecision" text-rendering="geometricPrecision" image-rendering="optimizeQuality" fill-rule="evenodd" clip-rule="evenodd"
viewBox="0 0 1917 2116"
 xmlns:xlink="http://www.w3.org/1999/xlink">
 <g id="Layer_x0020_1">
  <metadata id="CorelCorpID_0Corel-Layer"/>
  <g id="_1361805319216">
   <path fill="#BA70FF" d="M1711 545l-261 0c-23,0 -42,19 -42,42 0,23 19,41 42,41l261 0c68,0 124,56 124,124l0 207c-39,-31 -88,-50 -141,-50l-1471 0c-77,0 -140,-63 -140,-140 0,-78 63,-141 140,-141l246 0c23,0 41,-18 41,-41 0,-23 -18,-42 -41,-42l-246 0c-123,0 -223,101 -223,224 0,9 0,1124 0,1124 0,123 100,223 223,223l1488 0c114,0 206,-93 206,-207l0 -1157c0,-114 -92,-207 -206,-207zm124 1104l-448 0c-78,0 -141,-63 -141,-140 0,-78 63,-141 141,-141l448 0 0 281zm0 -364l-448 0c-123,0 -224,101 -224,224 0,123 101,223 224,223l448 0 0 119 -225 0c-23,0 -41,19 -41,42 0,22 18,41 41,41l222 0c-11,56 -61,99 -121,99l-1488 0c-77,0 -140,-63 -140,-140l0 -171 60 0 149 150c7,7 18,12 29,12l292 0c17,48 63,82 117,82 68,0 124,-55 124,-124 0,-68 -56,-124 -124,-124 -54,0 -100,35 -117,83l-275 0 -149 -149c-8,-8 -18,-12 -29,-12l-77 0 0 -90 154 0c17,50 63,86 118,86 69,0 124,-56 124,-124 0,-69 -55,-124 -124,-124 -52,0 -97,33 -115,79l-157 0 0 -79 77 0c11,0 21,-5 29,-12l149 -149 608 0c17,48 63,82 116,82 69,0 124,-55 124,-124 0,-68 -55,-124 -124,-124 -53,0 -99,35 -116,83l-625 0c-11,0 -22,4 -29,12l-149 149 -60 0 0 -363c38,31 87,50 140,50l1471 0c78,0 141,63 141,140l0 153zm-1146 557c0,-22 18,-41 41,-41 23,0 41,19 41,41 0,23 -18,42 -41,42 -23,0 -41,-19 -41,-42zm-375 -330c0,-23 19,-42 41,-42 23,0 42,19 42,42 0,23 -19,41 -42,41 -22,0 -41,-18 -41,-41zm707 -327c0,-23 19,-41 41,-41 23,0 42,18 42,41 0,23 -19,42 -42,42 -22,0 -41,-19 -41,-42z"/>
   <path fill="#BA70FF" d="M1420 1479c-7,-7 -18,-12 -29,-12 -11,0 -21,5 -29,12 -8,8 -12,19 -12,30 0,11 4,21 12,29 8,8 18,12 29,12 11,0 22,-4 29,-12 8,-8 13,-19 13,-29 0,-11 -5,-22 -13,-30z"/>
   <path fill="#BA70FF" d="M959 0c-23,0 -41,19 -41,41l0 66c0,23 18,42 41,42 23,0 42,-19 42,-42l0 -66c0,-22 -19,-41 -42,-41z"/>
   <path fill="#BA70FF" d="M583 0c-23,0 -41,19 -41,41l0 152c0,23 18,41 41,41 23,0 41,-18 41,-41l0 -152c0,-22 -18,-41 -41,-41z"/>
   <path fill="#BA70FF" d="M1293 0c-23,0 -41,19 -41,41l0 196c0,23 18,41 41,41 23,0 41,-18 41,-41l0 -196c0,-22 -18,-41 -41,-41z"/>
   <path fill="#BA70FF" d="M612 301c-7,-7 -18,-12 -29,-12 -11,0 -21,5 -29,12 -8,8 -12,19 -12,30 0,10 4,21 12,29 8,7 18,12 29,12 11,0 22,-5 29,-12 8,-8 12,-19 12,-29 0,-11 -4,-22 -12,-30z"/>
   <path fill="#BA70FF" d="M1541 727l-230 0c15,-41 23,-85 23,-129 0,-207 -168,-375 -375,-375 -207,0 -375,168 -375,375 0,44 8,88 23,129l-230 0c-23,0 -42,19 -42,42 0,22 19,41 42,41l295 0 574 0 295 0c23,0 42,-19 42,-41 0,-23 -19,-42 -42,-42zm-319 0l-141 0c6,-14 10,-30 10,-47 0,-68 -59,-123 -132,-123 -27,0 -49,-18 -49,-41 0,-22 22,-41 49,-41 27,0 49,19 49,41 0,23 19,41 42,41 23,0 41,-18 41,-41 0,-54 -38,-101 -91,-117 0,-22 -18,-40 -41,-40 -22,0 -41,18 -41,40 -53,16 -91,63 -91,117 0,68 59,124 132,124 27,0 49,18 49,40 0,23 -22,41 -49,41 -27,0 -49,-18 -49,-41 0,-22 -19,-41 -41,-41 -23,0 -42,19 -42,41 0,17 4,33 10,47l-140 0c-20,-40 -30,-84 -30,-129 0,-161 131,-292 292,-292 161,0 293,131 293,292 0,45 -11,89 -30,129z"/>
   <path fill="#BA70FF" d="M1468 1863c-8,-7 -19,-12 -29,-12 -11,0 -22,5 -30,12 -7,8 -12,19 -12,30 0,10 5,21 12,29 8,7 19,12 30,12 10,0 21,-5 29,-12 7,-8 12,-19 12,-29 0,-11 -5,-22 -12,-30z"/>
   <path fill="#BA70FF" d="M1255 1851l-165 0 0 -384c0,-22 -18,-41 -41,-41l-133 0c-17,-48 -63,-82 -117,-82 -69,0 -124,55 -124,123 0,69 55,124 124,124 54,0 100,-34 117,-82l91 0 0 384c0,22 19,41 42,41l206 0c22,0 41,-19 41,-41 0,-23 -19,-42 -41,-42zm-456 -342c-23,0 -42,-19 -42,-42 0,-22 19,-41 42,-41 23,0 41,19 41,41 0,23 -18,42 -41,42z"/>
  </g>
 </g>
</svg>
