<?xml version="1.0" encoding="UTF-8"?>
<!DOCTYPE svg PUBLIC "-//W3C//DTD SVG 1.0//EN" "http://www.w3.org/TR/2001/REC-SVG-20010904/DTD/svg10.dtd">
<!-- Creator: CorelDRAW X8 -->
<svg xmlns="http://www.w3.org/2000/svg" xml:space="preserve" width="12.0079in" height="12.4375in" version="1.0" shape-rendering="geometricPrecision" text-rendering="geometricPrecision" image-rendering="optimizeQuality" fill-rule="evenodd" clip-rule="evenodd"
viewBox="0 0 17106 17718"
 xmlns:xlink="http://www.w3.org/1999/xlink">
 <g id="Layer_x0020_1">
  <metadata id="CorelCorpID_0Corel-Layer"/>
  <path fill="#CCCCCC" d="M16846 16138l-4217 -4385c1084,-1289 1678,-2911 1678,-4599 0,-3945 -3209,-7154 -7153,-7154 -3945,0 -7154,3209 -7154,7154 0,3944 3209,7153 7154,7153 1480,0 2892,-446 4098,-1294l4249 4419c178,184 417,286 673,286 242,0 472,-92 646,-260 371,-357 383,-949 26,-1320zm-9692 -14272c2915,0 5287,2372 5287,5288 0,2915 -2372,5287 -5287,5287 -2916,0 -5288,-2372 -5288,-5287 0,-2916 2372,-5288 5288,-5288z"/>
 </g>
</svg>
